<svg xmlns="http://www.w3.org/2000/svg" viewBox="112.71001037597657 167.1750030517578 349.5800018310547 240.6500015258789"> <svg xmlns="http://www.w3.org/2000/svg" xmlns:xlink="http://www.w3.org/1999/xlink" version="1.1" id="xxxx_1" x="247.00001525878906" y="237.1750030517578" viewBox="1720.800048828125 863.2999877929688 1558.300048828125 1273.499755859375" xml:space="preserve" height="66.19614298530732" width="81" preserveAspectRatio="xMinYMin" enable-background="new 0 0 5000 3000" style="overflow: visible;"><path d="M3266.6,1766.8c-66.7-21.3-144.7-42-225.5-40c25.6-38,42.9-79.4,50.6-123.9c28.4-164.7,116.2-196.7,121.7-198.8l43.8-21.4   h-48.7c-5.6,0-133.6,2-302.3,140.1c-44.2-175.5-203.6-301.1-386.3-301.1c-219.8,0-398.7,178.9-398.7,398.7   c0,101.4,39.2,198.9,108.1,272.4c-16.5-1.3-32.8-2.5-49.4-3.7c-14.9-1-28.5-1.4-41.3-1.1c-55.5,0.3-105.8,8.4-149.9,24.1   c-71.4,24.7-129.3,69.5-171.9,133.2c3.9,2.7,8.5,3.9,13,3.9c6.8,0,13.7-3,18.1-8.9c38.4-50.1,87.9-86,147.4-106.8   c54.6-10.8,112.8-10.6,173.8,0.4v0.3c11.1,3.3,22.4,5.8,33.7,8.2c7.9,1.9,15.7,3.4,23.4,4.7c40,11.4,80,27,118.9,46.5   c26.7,13.3,52.2,29.8,76.7,45.6c33.3,21.5,67.7,43.8,106.5,59.2c61.1,24.3,129.1,37.6,196.6,38.4h8.1   c91.3,0,249.8-14.9,345.1-108.7c36-35.3,67.6-74.9,97.9-114.6c0.3-0.5,0.6-0.9,1-1.3v-0.1c6.5-8.5,13-17,19.4-25.4l7-9.1   c1.6-2.2,6.8-9.6,13.5-19.5c13.5-19.6,45.2-65.3,51.8-70.9l10.4-16.1L3266.6,1766.8z M3151.3,1420.1c-30.4,30.5-65.3,84.4-81.7,179   c-8.2,46.8-27.3,90.3-56.7,129.3c-34.9,3.3-68.5,10.8-99.6,22.8c-8.6,3.2-17.1,6.8-25.6,10.4c49-56.1,78.4-128,102.2-199.5   C3017.4,1479.4,3096,1438.9,3151.3,1420.1z M2906.8,1551.2c41.5-35.3,80.8-62,116.5-82.4c-23.2,22.5-43,50.8-54.7,86.1   c-42.3,126.7-86.5,196.4-152.4,240.2c-8.9,4.4-17.9,8.9-26.6,13.4c-43,21.9-87.5,44.6-133.4,60.6c-24.7,8.7-49.1,15.2-73.2,20.3   c15.8-5.8,32.9-12.5,50.6-20.6c65.5-29.8,151.5-82.2,203.6-164.5c2.4,1.1,5.2,1.8,8,1.8c11,0,19.9-8.9,19.9-19.7   c0-11-8.9-19.9-19.9-19.9c-10.9,0-19.7,8.9-19.7,19.9c0,5.9,2.8,11.1,7.1,14.8c-51.1,81.2-136.3,133.1-201,162.4   c-2.2,1-4.2,1.9-6.3,2.8c25.7-17.2,62.9-45.2,87.1-76.7c1.6,0.8,3.5,1.3,5.6,1.3c7.7,0,14.1-6.3,14.1-14.1   c0-7.7-6.3-14.1-14.1-14.1s-13.9,6.3-13.9,14.1c0,3.7,1.4,7,3.8,9.5c-38.2,49.5-111.2,91.4-113.8,92.9c-17.6,6.8-33.8,12.4-48,16.8   c-12.8,1.9-25.4,3.4-37.9,4.6c74.6-29.8,165.8-93.4,278.8-227.4C2824.8,1628.2,2865.1,1587.2,2906.8,1551.2z M2887,1538.8   c-40.8,35.6-80.3,75.8-117.4,119.9c-182.3,216.2-304.3,244.2-390.4,244.2c-22.3-0.9-44.3-2.3-66.7-3.8h-0.3c0,0,0,0-0.1,0   c-14.3-1-28.7-2.2-43-3.4c-15.1-40.5-22.9-83.6-22.9-128c0-207.5,168.8-376.3,376.3-376.3c91.4,0,179.6,33.5,248.6,94.1   C2877.6,1502.6,2882.9,1520.5,2887,1538.8z M2143.8,1620.5c0-207.4,168.8-376.1,376.1-376.1c140.1,0,265.7,78.5,330.3,196.7   c-67-46.6-146.2-72.2-227.9-72.2c-219.9,0-398.8,178.9-398.8,398.8c0,34.3,4.6,67.7,13,100   C2177.2,1799.6,2143.8,1711.6,2143.8,1620.5z M2315.9,1937.9c-28.1-2.8-56.3-7.1-84.2-12.7c-20.6-5.8-41-10.5-61.1-14.1   c2.7,0.3,5.3,0.4,8,0.5c4.1,0.3,8,0.6,11.9,0.9c60.9,11.1,167,27,276.1,27c104.3,0,210.8-14.9,282.8-62.3c2.7,2.8,6.5,4.7,10.6,4.7   c8.2,0,14.9-6.7,14.9-14.9c0-8.2-6.7-14.9-14.9-14.9c-8.2,0-14.8,6.7-14.8,14.9c0,2.2,0.4,4.1,1.1,5.9   c-124.1,81.5-354.2,64.6-492.7,44.3c1.5,0.1,2.9,0.3,4.4,0.4l4.1,0.1h0.1c16.1,1.5,32.3,2.8,48.4,3.8v0.1l12.4,0.9   c17.3,1.4,35.3,2.8,55.1,2.9h0.6c77.2,3.2,179.5,2,285-35.1c34.6-12.2,67.9-27.7,100.3-43.8h0.1c22.9-8.7,44.1-19.4,62.9-31.9   c30.8-15.4,62.3-30.5,94.4-42.5c30.8-11.8,63.9-19.2,98.7-22c55.7-4.4,111,3.7,162.4,16.2c-88,2.9-164.5,16.3-231.9,40.8   c-18.2,6.6-35.7,14.7-52.8,23.2l-0.1-0.1l-3,1.6c-6.7,3.4-13.3,6.8-19.7,10.4c-0.1,0.1-0.3,0.1-0.4,0.1v0.1   c-11.6,6.2-23.2,12.5-34.6,19c-23.3,13-47.5,26.5-71.9,37.9c-64.3,30.1-133.1,39.5-216.6,44.2c-13.9,0.8-27.6,1.1-41.3,1.5   c-33.9-3-50.5-0.9-57.2,0.6c-43.7-0.3-86.2-2.3-127-6.3L2315.9,1937.9z M2725.3,2114.2c-64.7-0.6-129.9-13.4-188.6-36.8   c-36.6-14.6-70.1-36.2-102.5-57.1c-25.1-16.2-51-33-78.7-46.8c-8.1-4.1-16.3-7.8-24.6-11.5c42.4,4.1,86.6,6.5,132.7,6.5   c13.3,0,27.2-0.8,40.8-1.1c41.1,3.4,113.8,15.6,236.2,52.5c60.8,18.4,116.7,27.5,168,27.5c56.6,0,107.2-11.1,151.9-33.4   C2967.7,2102.9,2810.6,2114.8,2725.3,2114.2z M3198.5,1845.2c-6.5,9.4-11.3,16.3-12.9,18.6l-7.1,9.2c-7.2,9.6-14.6,19.2-22,28.9   c-89.1,121.2-223.1,152.7-409.6,96.3c-55.3-16.7-100.5-28.4-137.7-36.7c61.8-6.1,116.2-17.3,168.4-41.9   c25.2-11.8,49.8-25.4,73.3-38.6c11.3-6.3,22.7-12.7,34.2-18.7c3.3-1.5,10.4-5.1,19.7-10.4c17.3-8.9,35.2-17,53.4-23.7   c78.9-28.5,170.8-41.4,280.4-39.8C3229.9,1800.1,3217.5,1817.6,3198.5,1845.2z" style="fill: #CD8E33; fill-opacity: 1;"></path><polygon points="2936.8,1194.8 2943.1,1183.2 2954.8,1176.8 2943.1,1170.5 2936.8,1158.8 2930.4,1170.5 2918.8,1176.8    2930.4,1183.2  " style="fill: #CD8E33; fill-opacity: 1;"></polygon><polygon points="2947.9,1321.9 2935.4,1328.7 2947.9,1335.5 2954.8,1348.1 2961.6,1335.5 2974.1,1328.7 2961.6,1321.9    2954.8,1309.4  " style="fill: #CD8E33; fill-opacity: 1;"></polygon><polygon points="2686.5,1012.2 2712.8,964.1 2760.9,937.7 2712.8,911.4 2686.5,863.3 2660.1,911.4 2612,937.7 2660.1,964.1  " style="fill: #CD8E33; fill-opacity: 1;"></polygon><polygon points="2095.8,1049.1 2108.8,1025.3 2132.6,1012.2 2108.8,999.2 2095.8,975.4 2082.8,999.2 2059,1012.2 2082.8,1025.3     " style="fill: #CD8E33; fill-opacity: 1;"></polygon><polygon points="2289.9,1195.7 2296.5,1183.5 2308.7,1176.8 2296.5,1170.2 2289.9,1158 2283.2,1170.2 2271,1176.8 2283.2,1183.5     " style="fill: #CD8E33; fill-opacity: 1;"></polygon><polygon points="1761.1,1367.2 1746.9,1393.2 1720.8,1407.5 1746.9,1421.7 1761.1,1447.7 1775.3,1421.7 1801.4,1407.5    1775.3,1393.2  " style="fill: #CD8E33; fill-opacity: 1;"></polygon><polygon points="2000.2,1617.5 2005.8,1607.2 2016.1,1601.5 2005.8,1595.9 2000.2,1585.6 1994.5,1595.9 1984.2,1601.5    1994.5,1607.2  " style="fill: #CD8E33; fill-opacity: 1;"></polygon><polygon points="2427.7,1684.3 2420,1698.4 2406,1706.1 2420,1713.7 2427.7,1727.8 2435.4,1713.7 2449.4,1706.1 2435.4,1698.4  " style="fill: #CD8E33; fill-opacity: 1;"></polygon></svg> <svg y="311.1750030517578" viewBox="2.7200000286102295 5.409999847412109 209.5800018310547 26.650001525878906" x="182.71001037597657" height="26.650001525878906" width="209.5800018310547" xmlns="http://www.w3.org/2000/svg" style="overflow: visible;"><g fill="#CD8E33" fill-opacity="1" style=""><path d="M17.02 27.81Q17.02 27.90 17.41 27.66Q17.79 27.42 18.11 26.77Q18.43 26.11 18.43 24.83L18.43 24.83L18.43 17.57L6.40 17.57L6.40 24.83Q6.40 26.11 6.72 26.77Q7.04 27.42 7.42 27.65Q7.81 27.87 7.81 27.81L7.81 27.81L2.72 27.81Q2.72 27.90 3.10 27.66Q3.49 27.42 3.79 26.77Q4.10 26.11 4.10 24.83L4.10 24.83L4.10 8.77Q4.10 7.49 3.79 6.83Q3.49 6.18 3.10 5.95Q2.72 5.73 2.72 5.79L2.72 5.79L7.81 5.79Q7.81 5.73 7.42 5.95Q7.04 6.18 6.72 6.83Q6.40 7.49 6.40 8.77L6.40 8.77L6.40 16.16L18.43 16.16L18.43 8.77Q18.43 7.49 18.11 6.83Q17.79 6.18 17.41 5.95Q17.02 5.73 17.02 5.79L17.02 5.79L22.11 5.79Q22.11 5.70 21.73 5.94Q21.34 6.18 21.04 6.83Q20.74 7.49 20.74 8.77L20.74 8.77L20.74 24.83Q20.74 26.11 21.06 26.77Q21.38 27.42 21.76 27.65Q22.14 27.87 22.14 27.81L22.14 27.81L17.02 27.81ZM41.10 27.81L29.04 27.81Q29.04 27.90 29.42 27.66Q29.81 27.42 30.11 26.70Q30.42 25.98 30.42 24.61L30.42 24.61L30.42 8.90Q30.42 7.58 30.11 6.90Q29.81 6.21 29.42 5.95Q29.04 5.70 29.04 5.79L29.04 5.79L40.62 5.79L40.62 8.99Q40.05 7.07 37.17 7.07L37.17 7.07L32.72 7.07L32.72 16.16L38.22 16.16Q38.86 16.16 39.31 15.95Q39.76 15.74 39.98 15.52Q40.21 15.30 40.24 15.23L40.24 15.23L40.24 18.34Q40.21 18.27 39.98 18.05Q39.76 17.82 39.33 17.63Q38.90 17.44 38.26 17.44L38.26 17.44L32.72 17.44L32.72 26.53L37.71 26.53Q39.15 26.53 40.19 25.94Q41.23 25.34 41.68 24.42L41.68 24.42L41.10 27.81ZM49.31 8.77Q49.31 7.49 49.01 6.83Q48.70 6.18 48.32 5.95Q47.94 5.73 47.94 5.79L47.94 5.79L53.02 5.79Q53.02 5.73 52.64 5.95Q52.26 6.18 51.94 6.83Q51.62 7.49 51.62 8.77L51.62 8.77L51.62 26.53L56.86 26.53Q58.30 26.53 59.34 25.94Q60.38 25.34 60.83 24.42L60.83 24.42L60.26 27.81L47.94 27.81Q47.94 27.90 48.32 27.66Q48.70 27.42 49.01 26.70Q49.31 25.98 49.31 24.61L49.31 24.61L49.31 8.77ZM67.50 8.77Q67.50 7.49 67.20 6.83Q66.90 6.18 66.51 5.95Q66.13 5.73 66.13 5.79L66.13 5.79L71.22 5.79Q71.22 5.73 70.83 5.95Q70.45 6.18 70.13 6.83Q69.81 7.49 69.81 8.77L69.81 8.77L69.81 26.53L75.06 26.53Q76.50 26.53 77.54 25.94Q78.58 25.34 79.02 24.42L79.02 24.42L78.45 27.81L66.13 27.81Q66.13 27.90 66.51 27.66Q66.90 27.42 67.20 26.70Q67.50 25.98 67.50 24.61L67.50 24.61L67.50 8.77ZM83.14 17.06Q83.14 13.66 84.59 11.01Q86.05 8.35 88.69 6.88Q91.33 5.41 94.78 5.41L94.78 5.41Q97.66 5.41 100.18 6.67Q102.69 7.94 104.21 10.46Q105.73 12.99 105.73 16.54L105.73 16.54Q105.73 19.94 104.27 22.59Q102.82 25.25 100.18 26.72Q97.54 28.19 94.08 28.19L94.08 28.19Q91.20 28.19 88.69 26.93Q86.18 25.66 84.66 23.14Q83.14 20.61 83.14 17.06L83.14 17.06ZM103.17 17.02Q103.17 14.11 101.97 11.76Q100.77 9.41 98.67 8.08Q96.58 6.75 93.95 6.75L93.95 6.75Q91.55 6.75 89.68 7.97Q87.81 9.18 86.75 11.41Q85.70 13.63 85.70 16.58L85.70 16.58Q85.70 19.49 86.90 21.84Q88.10 24.19 90.19 25.52Q92.29 26.85 94.91 26.85L94.91 26.85Q97.31 26.85 99.18 25.63Q101.06 24.42 102.11 22.19Q103.17 19.97 103.17 17.02L103.17 17.02ZM111.54 32.06Q112.40 31.74 112.99 30.61Q113.58 29.47 113.58 28.35L113.58 28.35Q113.58 28.06 113.55 27.94L113.55 27.94L113.33 27.94Q112.53 27.94 112.11 27.50Q111.70 27.07 111.70 26.46L111.70 26.46Q111.70 25.82 112.13 25.36Q112.56 24.90 113.30 24.90L113.30 24.90Q114.10 24.90 114.69 25.55Q115.28 26.21 115.28 27.46L115.28 27.46Q115.28 28.45 114.86 29.49Q114.45 30.53 113.58 31.26Q112.72 32 111.54 32.06L111.54 32.06ZM145.66 27.81L140.70 27.81Q141.09 27.74 141.54 27.12Q141.98 26.50 141.98 24.80L141.98 24.80L141.98 8.80L133.60 28.16L125.09 8.83L125.09 24.64Q125.09 26.37 125.65 27.06Q126.21 27.74 126.66 27.81L126.66 27.81L121.92 27.81Q122.40 27.74 122.98 27.09Q123.55 26.43 123.55 24.64L123.55 24.64L123.55 8.61Q123.55 7.07 123.01 6.50Q122.46 5.92 121.92 5.79L121.92 5.79L126.24 5.79L134.08 23.68L141.79 5.79L145.66 5.79Q145.25 5.86 144.77 6.46Q144.29 7.07 144.29 8.70L144.29 8.70L144.29 24.93Q144.29 26.53 144.77 27.14Q145.25 27.74 145.66 27.81L145.66 27.81ZM152.56 27.81Q152.56 27.90 152.94 27.66Q153.33 27.42 153.65 26.77Q153.97 26.11 153.97 24.83L153.97 24.83L153.97 8.77Q153.97 7.49 153.66 6.83Q153.36 6.18 152.98 5.95Q152.59 5.73 152.59 5.79L152.59 5.79L157.68 5.79Q157.68 5.73 157.30 5.95Q156.91 6.18 156.59 6.83Q156.27 7.49 156.27 8.77L156.27 8.77L156.27 24.83Q156.27 26.11 156.59 26.77Q156.91 27.42 157.30 27.65Q157.68 27.87 157.68 27.81L157.68 27.81L152.56 27.81ZM178.91 26.02Q175.90 27.81 170.88 27.81L170.88 27.81L164.58 27.81Q164.58 27.90 164.96 27.63Q165.34 27.36 165.65 26.62Q165.95 25.89 165.95 24.48L165.95 24.48L165.95 8.74Q165.95 7.49 165.65 6.83Q165.34 6.18 164.96 5.95Q164.58 5.73 164.58 5.79L164.58 5.79L170.85 5.79Q175.74 5.79 178.59 7.39L178.59 7.39Q181.12 8.80 182.50 11.20Q183.87 13.60 183.87 16.61L183.87 16.61Q183.87 19.87 182.58 22.26Q181.28 24.64 178.91 26.02L178.91 26.02ZM177.66 8.83Q176.26 7.90 174.66 7.49Q173.06 7.07 170.85 7.07L170.85 7.07L168.26 7.07L168.26 26.53L170.85 26.53Q173.47 26.53 175.15 26.08Q176.83 25.63 178.05 24.70L178.05 24.70Q179.62 23.49 180.46 21.52Q181.31 19.55 181.31 16.93L181.31 16.93Q181.31 14.14 180.34 12.05Q179.36 9.95 177.66 8.83L177.66 8.83ZM189.71 17.06Q189.71 13.66 191.17 11.01Q192.62 8.35 195.26 6.88Q197.90 5.41 201.36 5.41L201.36 5.41Q204.24 5.41 206.75 6.67Q209.26 7.94 210.78 10.46Q212.30 12.99 212.30 16.54L212.30 16.54Q212.30 19.94 210.85 22.59Q209.39 25.25 206.75 26.72Q204.11 28.19 200.66 28.19L200.66 28.19Q197.78 28.19 195.26 26.93Q192.75 25.66 191.23 23.14Q189.71 20.61 189.71 17.06L189.71 17.06ZM209.74 17.02Q209.74 14.11 208.54 11.76Q207.34 9.41 205.25 8.08Q203.15 6.75 200.53 6.75L200.53 6.75Q198.13 6.75 196.26 7.97Q194.38 9.18 193.33 11.41Q192.27 13.63 192.27 16.58L192.27 16.58Q192.27 19.49 193.47 21.84Q194.67 24.19 196.77 25.52Q198.86 26.85 201.49 26.85L201.49 26.85Q203.89 26.85 205.76 25.63Q207.63 24.42 208.69 22.19Q209.74 19.97 209.74 17.02L209.74 17.02Z" transform="translate(0, 0)"></path></g></svg></svg>